<svg width="99" height="100" xmlns="http://www.w3.org/2000/svg">
    <g fill-rule="nonzero" fill="none">
        <path fill="#1E1656" d="M42.244703 55.111025l-10.492876-6.116628V36.740684l10.492876 6.126856v12.243485M42.244703 18.370342l-10.492876 6.126857v12.243485l10.492876-6.116629V18.370342M52.73758 0L42.244702 6.126857v12.243485l10.492876-6.126857V0M21.258951 18.370342l-10.492876 6.126857v12.243485l10.492876-6.116629V18.370342"/>
        <path fill="#722EA5" d="M31.751827 36.740684l-10.492876-6.116629V18.370342l10.492876 6.126857v12.243485"/>
        <path fill="#2A6EBB" d="M73.723331 36.740684l-10.492876-6.116629V18.370342l10.492876 6.126857v12.243485"/>
        <path fill="#952D98" d="M.2732 55.111025l10.492875 6.126857 10.492876-6.126857-10.492876-6.116628zM21.258951 55.111025l10.492876 6.126857 10.492876-6.126857-10.492876-6.116628z"/>
        <path fill="#44C8F5" d="M31.751827 36.740684l10.492876 6.126856 10.492876-6.126856-10.492876-6.116629zM52.73758 36.740684l10.492875 6.126856 10.492876-6.126856-10.492876-6.116629z"/>
        <path d="M42.244703 63.774544v15.649568H31.680998c-.09444-.001368-.185508.035455-.252962.102284l-3.126614 5.36995c-.091067.173884-.121422.255712-.07083.378454.054027.132043.182457.21724.323792.214798H64.6774c1.585832-.027737 3.073946-.779882 4.047396-2.045696.971535 1.268173 2.460847 2.020923 4.047397 2.045696h25.842628c.18612.00008.338555-.14948.344029-.33754v-5.36995c-.00284-.088587-.039032-.172736-.101185-.235255-.065517-.063485-.152117-.09996-.242844-.102284H84.80308v-8.489635c-.01139-.75485.579028-1.37902 1.325522-1.401301h9.228065c.09444.001368.185508-.035455.252962-.102285l3.15697-5.410863c.091066-.173885.13154-.255712.070829-.378454-.054027-.132043-.182457-.217241-.323792-.214798H84.550117c-3.090904-.058706-5.666046 2.381164-5.808014 5.50292V79.43434h-5.200905V52.778933c-.00169-.13915-.08528-.263884-.212488-.317083-.13154-.051142-.20237 0-.374384.0716l-5.312208 3.170827c-.066111.068188-.102538.160246-.101185.255712v23.525493h-5.200905v-10.5967c-.131153-3.09351-2.674484-5.519387-5.737185-5.472234H42.588732c-.093023-.000041-.182097.038-.246913.105448-.064817.067448-.099852.158555-.097116.252548zm14.165889 15.649568h-6.759153c-.737134.000186-1.339375-.59497-1.355878-1.33993v-8.53055h6.799627c.732978.022128 1.31573.62934 1.315404 1.370617v8.499863zM75.382764 89.652587c-.003059-.041562.011947-.08241.0411-.11188.029154-.02947.069562-.044639.110677-.041547h6.44548c.041115-.003092.081523.012077.110676.041547.029154.02947.04416.070318.041101.11188v1.595642c.003058.041563-.011947.08241-.0411.11188-.029154.02947-.069562.04464-.110677.041547h-4.320596c-.025039-.003423-.050222.005169-.068088.023229-.017866.01806-.026365.043517-.022979.068828v2.045695c-.003386.02531.005113.050767.022979.068827s.04305.026652.068088.023229h3.602183c.041115-.003092.081523.012077.110677.041547.029153.02947.044159.070318.0411.11188v1.5445c.003059.041562-.011947.08241-.0411.11188-.029154.02947-.069562.044639-.110677.041547h-3.602183c-.025039-.003423-.050222.005168-.068088.023229-.017866.01806-.026365.043517-.022979.068827v2.107066c-.003386.02531.005113.050768.022979.068828s.04305.026651.068088.023229h4.330714c.041116-.003092.081524.012077.110677.041547.029153.02947.044159.070317.0411.11188v1.595642c.003059.041562-.011947.08241-.0411.11188-.029153.02947-.069561.044639-.110677.041547h-6.455598c-.041115.003092-.081523-.012077-.110677-.041547-.029153-.02947-.044159-.070318-.0411-.11188v-9.870479zM85.895877 99.75832c-1.578485 0-2.21595-.705764-2.21595-2.301406v-7.804327c-.003058-.041562.011947-.08241.0411-.11188.029154-.02947.069562-.044639.110678-.041547h1.770736c.041115-.003092.081523.012077.110676.041547.029154.02947.04416.070318.041101.11188v7.630443c0 .490966.192251.685308.617228.685308h.313673c.041116-.003092.081524.012077.110677.041547.029153.02947.04416.070317.0411.11188v1.483129c.00306.041562-.011947.08241-.0411.11188-.029153.02947-.069561.044639-.110677.041547h-.789242zM96.94527 99.666264c-.041115.003092-.081523-.012077-.110677-.041547-.029153-.02947-.044159-.070317-.0411-.11188v-4.15276c0-.787593-.384503-1.319474-1.123153-1.319474s-1.113034.521652-1.113034 1.319473v4.152761c.003059.041563-.011947.08241-.0411.11188-.029154.02947-.069562.04464-.110677.041547h-1.770736c-.041116.003092-.081524-.012077-.110677-.041547-.029154-.02947-.04416-.070317-.0411-.11188v-4.15276c0-.787593-.374385-1.319474-1.113035-1.319474s-1.123153.521652-1.123153 1.319473v4.152761c.003059.041563-.011947.08241-.0411.11188-.029154.02947-.069561.04464-.110677.041547h-1.770736c-.041116.003092-.081523-.012077-.110677-.041547-.029153-.02947-.044159-.070317-.0411-.11188V92.58816c-.003059-.041562.011947-.08241.0411-.11188.029154-.02947.069561-.044639.110677-.041547h1.770736c.041116-.003091.081523.012077.110677.041548.029153.02947.044159.070317.0411.11188v.490966c.487756-.541248 1.1838-.841984 1.907874-.824323.724074.01766 1.40496.351981 1.866324.91638.583594-.61711 1.402625-.94903 2.246305-.910335.727328-.080224 1.451098.179582 1.965484.705536.514387.525955.763111 1.260513.675442 1.994782v4.5619c.003059.041562-.011947.08241-.0411.11188-.029154.02947-.069562.044639-.110677.041547l-1.81121-.010229z" fill="#808285"/>
    </g>
</svg>